<?xml version="1.0" standalone="no"?>
<!DOCTYPE svg PUBLIC "-//W3C//DTD SVG 20010904//EN"
 "http://www.w3.org/TR/2001/REC-SVG-20010904/DTD/svg10.dtd">
<svg version="1.0" xmlns="http://www.w3.org/2000/svg"
 width="1000.000000pt" height="1000.000000pt" viewBox="0 0 1000.000000 1000.000000"
 preserveAspectRatio="xMidYMid meet">
<metadata>
Created by potrace 1.11, written by Peter Selinger 2001-2013
</metadata>
<g transform="translate(0.000000,1000.000000) scale(0.100000,-0.100000)"
fill="#000000" stroke="none">
<path d="M500 5000 l0 -4500 4500 0 4500 0 0 4500 0 4500 -4500 0 -4500 0 0
-4500z m8435 0 l0 -3935 -3935 0 -3935 0 -1 3936 -1 3936 3936 -1 3936 -1 0
-3935z"/>
<path d="M2084 7283 c4 -8 18 -61 32 -117 14 -55 52 -202 85 -326 33 -124 62
-238 65 -254 3 -16 7 -32 9 -35 3 -5 100 -375 110 -421 2 -8 20 -76 40 -150
20 -74 38 -145 41 -158 2 -12 22 -89 44 -170 21 -81 59 -226 84 -322 44 -170
64 -247 107 -407 11 -43 22 -85 24 -93 3 -15 70 -271 126 -485 17 -66 32 -127
34 -135 2 -8 22 -85 45 -170 23 -85 43 -162 45 -170 3 -13 99 -384 175 -675
80 -305 93 -355 109 -420 l16 -70 327 -1 327 -1 10 31 c6 17 28 96 50 176 22
80 60 217 85 305 24 88 99 356 166 595 67 239 133 476 147 525 14 50 26 95 27
100 2 6 8 28 14 50 20 67 113 399 117 418 2 10 27 98 54 195 44 155 68 243 77
277 1 6 54 195 117 420 63 226 134 479 158 563 23 83 45 152 49 152 7 0 7 0
105 -360 42 -151 82 -297 91 -325 19 -68 13 -45 194 -705 88 -322 166 -607
174 -635 8 -27 31 -108 50 -180 20 -71 72 -258 115 -415 43 -157 93 -339 111
-405 17 -66 36 -131 40 -145 5 -14 23 -79 40 -145 18 -66 40 -149 51 -185 10
-36 34 -119 52 -185 l32 -120 328 -1 c180 -1 327 0 327 2 0 2 7 29 16 61 8 32
17 65 19 73 2 8 15 59 30 113 15 54 28 106 31 115 8 35 43 170 64 247 59 222
132 497 135 513 9 37 108 414 135 512 11 38 256 970 346 1315 30 116 66 251
79 300 104 396 347 1322 348 1330 1 6 -118 10 -339 11 l-341 1 -17 -81 c-10
-44 -22 -94 -27 -111 -5 -16 -13 -52 -19 -80 -5 -27 -11 -59 -14 -70 -45 -190
-79 -335 -82 -355 -3 -14 -7 -33 -10 -42 -3 -9 -7 -25 -9 -35 -2 -10 -15 -70
-30 -133 -14 -63 -28 -122 -30 -130 -5 -25 -114 -498 -136 -595 -20 -88 -41
-180 -73 -320 -9 -38 -18 -79 -21 -90 -2 -11 -11 -49 -20 -85 -8 -36 -36 -155
-61 -265 -25 -110 -47 -207 -49 -215 -11 -45 -57 -248 -61 -265 -2 -11 -6 -29
-8 -40 -2 -11 -20 -87 -40 -170 -19 -82 -37 -161 -39 -175 -3 -14 -10 -45 -17
-70 -7 -25 -14 -56 -16 -68 -3 -13 -18 -81 -35 -150 -16 -70 -32 -140 -35
-157 -12 -62 -16 -54 -54 85 -17 63 -37 138 -45 165 -8 28 -38 133 -66 235
-28 102 -62 226 -75 275 -14 50 -27 97 -29 105 -6 24 -183 669 -199 725 -35
122 -88 311 -91 325 -3 13 -101 370 -205 745 -41 149 -181 657 -231 840 -17
61 -37 131 -45 156 l-15 46 -335 0 c-184 0 -337 -3 -339 -7 -2 -4 -34 -115
-70 -246 -37 -131 -75 -270 -86 -309 -11 -38 -21 -77 -23 -85 -4 -15 -83 -303
-181 -655 -29 -104 -71 -257 -93 -340 -74 -268 -192 -697 -222 -805 -16 -58
-68 -244 -115 -415 -46 -170 -89 -326 -95 -345 -6 -19 -26 -93 -46 -165 -19
-71 -47 -170 -61 -220 -14 -49 -27 -102 -30 -117 -3 -16 -9 -28 -13 -28 -7 0
-14 25 -59 220 -11 47 -31 132 -45 190 -14 58 -27 116 -30 130 -2 14 -18 86
-35 160 -18 74 -34 146 -37 160 -3 13 -14 63 -25 110 -11 47 -36 155 -55 240
-59 264 -85 374 -94 410 -7 27 -55 236 -85 370 -2 8 -20 85 -39 170 -20 85
-56 243 -80 350 -25 107 -67 293 -95 412 -28 119 -52 227 -55 240 -5 24 -54
239 -86 373 -11 44 -22 94 -24 110 -3 17 -10 44 -14 60 l-8 30 -338 1 c-295 1
-337 0 -332 -13z"/>
</g>
</svg>
