<?xml version="1.0" standalone="no"?>
<!DOCTYPE svg PUBLIC "-//W3C//DTD SVG 20010904//EN"
 "http://www.w3.org/TR/2001/REC-SVG-20010904/DTD/svg10.dtd">
<svg version="1.0" xmlns="http://www.w3.org/2000/svg"
 width="512.000000pt" height="512.000000pt" viewBox="0 0 512.000000 512.000000"
 preserveAspectRatio="xMidYMid meet">
<metadata>
Created by potrace 1.11, written by Peter Selinger 2001-2013
</metadata>
<g transform="translate(0.000000,512.000000) scale(0.100000,-0.100000)"
fill="#000000" stroke="none">
<path d="M2379 5116 c-2 -2 -35 -6 -74 -10 -38 -3 -97 -10 -130 -16 -33 -6
-76 -13 -95 -16 -123 -19 -478 -130 -557 -173 -10 -6 -55 -28 -101 -50 -185
-89 -401 -234 -554 -372 -136 -123 -191 -181 -329 -346 -38 -46 -167 -241
-211 -319 -69 -124 -130 -257 -176 -384 -31 -87 -78 -245 -86 -290 -2 -14 -7
-36 -10 -50 -37 -159 -53 -338 -50 -565 1 -121 5 -236 9 -255 3 -19 12 -75 20
-125 29 -174 78 -357 142 -520 35 -89 122 -270 159 -332 10 -17 36 -60 57 -95
144 -239 387 -502 647 -696 311 -234 733 -412 1105 -467 22 -4 51 -8 65 -11
104 -19 471 -26 600 -12 158 18 153 18 300 48 106 22 363 103 449 141 478 214
859 531 1134 945 205 309 357 707 402 1054 29 228 28 539 -4 745 -83 543 -338
1042 -736 1439 -134 134 -309 269 -490 378 -62 38 -299 158 -310 158 -4 0 -21
6 -38 14 -134 61 -439 142 -602 161 -27 3 -61 8 -75 11 -29 6 -455 16 -461 10z
m501 -420 c128 -21 144 -24 227 -47 166 -44 325 -107 473 -186 87 -46 259
-157 295 -190 11 -10 38 -31 60 -48 71 -52 268 -258 342 -357 195 -258 343
-582 399 -873 4 -22 9 -47 10 -55 26 -129 39 -454 23 -585 -4 -38 -11 -92 -14
-120 -8 -66 -41 -215 -64 -290 -108 -349 -288 -652 -541 -905 -359 -360 -802
-572 -1315 -629 -103 -12 -420 -6 -510 8 -251 41 -432 96 -645 198 -459 221
-845 623 -1044 1090 -34 81 -100 274 -110 323 -57 276 -57 277 -61 485 -2 151
4 269 20 373 94 602 433 1131 945 1472 238 159 526 275 815 327 186 34 520 38
695 9z"/>
<path d="M1175 3931 c6 -48 29 -194 45 -296 5 -33 21 -136 35 -230 14 -93 28
-182 30 -196 3 -14 7 -41 9 -60 3 -19 7 -50 10 -69 10 -58 47 -303 51 -335 5
-35 10 -68 30 -190 8 -49 17 -112 20 -140 4 -27 8 -57 10 -65 3 -8 7 -37 10
-65 3 -27 8 -57 10 -65 3 -8 7 -37 10 -65 3 -27 8 -57 10 -65 2 -8 7 -35 10
-60 3 -25 13 -85 20 -135 8 -49 17 -108 20 -130 4 -22 13 -80 20 -130 8 -49
17 -112 20 -140 3 -27 8 -57 10 -65 2 -8 7 -35 10 -60 3 -25 8 -56 10 -70 2
-14 6 -43 10 -65 3 -23 7 -50 9 -60 4 -24 16 -100 21 -135 2 -14 8 -56 14 -95
6 -38 13 -81 15 -95 l3 -25 246 -1 246 0 15 65 c8 36 44 185 80 331 211 865
270 1127 301 1325 14 88 17 100 26 110 6 5 9 5 10 -3 1 -7 2 -15 3 -19 1 -5 5
-30 9 -58 9 -59 23 -133 44 -230 8 -38 17 -79 19 -90 6 -29 8 -41 59 -250 26
-104 48 -197 50 -205 17 -73 186 -767 217 -891 l21 -86 248 0 249 1 6 35 c3
20 7 47 10 61 2 14 6 43 9 65 5 39 14 99 21 140 2 17 15 108 30 210 12 88 75
514 79 535 2 14 7 45 10 70 6 57 16 129 21 155 2 11 7 40 10 65 3 25 7 52 9
60 2 8 7 40 10 70 4 30 8 57 10 60 2 3 6 35 10 70 3 36 8 72 10 80 3 8 7 33
10 55 7 56 13 95 19 130 2 17 12 82 21 145 9 63 18 126 20 140 3 14 7 41 9 60
3 19 19 130 36 245 17 116 33 228 36 250 3 22 12 81 19 130 8 50 17 113 20
140 4 28 8 57 10 65 2 8 7 38 10 66 l6 50 -216 1 c-190 0 -215 -2 -216 -16 0
-9 -2 -23 -3 -31 -2 -8 -6 -44 -10 -80 -7 -73 -15 -140 -21 -185 -2 -16 -7
-57 -10 -90 -3 -33 -8 -74 -10 -91 -2 -17 -7 -57 -10 -90 -4 -32 -8 -75 -11
-94 -2 -19 -6 -60 -10 -90 -3 -30 -7 -66 -9 -80 -2 -14 -7 -54 -10 -90 -3 -36
-8 -82 -11 -102 -2 -21 -6 -55 -8 -75 -3 -21 -8 -65 -11 -98 -3 -33 -8 -73
-10 -90 -2 -16 -7 -55 -10 -85 -3 -30 -7 -68 -9 -85 -3 -16 -7 -57 -10 -90
-11 -104 -25 -228 -41 -365 -2 -19 -7 -62 -10 -95 -4 -33 -8 -76 -11 -95 -2
-19 -6 -73 -10 -120 -3 -47 -7 -96 -9 -110 -2 -14 -7 -83 -11 -155 -4 -71 -8
-141 -9 -155 -2 -14 -3 -31 -4 -37 -2 -30 -20 -10 -26 30 -4 23 -9 51 -12 62
-2 11 -12 65 -23 120 -31 162 -57 280 -101 455 -22 91 -42 173 -44 183 -2 10
-7 27 -10 37 -3 10 -8 27 -10 37 -2 10 -21 88 -44 173 -22 85 -72 281 -111
435 -39 154 -75 296 -80 315 l-10 36 -189 0 -190 0 -20 -66 c-19 -64 -50 -179
-56 -212 -2 -9 -13 -50 -24 -90 -18 -65 -69 -257 -75 -283 -2 -5 -6 -23 -11
-40 -39 -147 -87 -333 -90 -345 -2 -8 -17 -69 -34 -135 -39 -153 -102 -445
-131 -602 -13 -68 -27 -123 -31 -123 -5 0 -10 26 -10 58 -1 31 -3 66 -4 77 -1
11 -5 65 -9 120 -3 55 -8 114 -10 130 -3 17 -7 64 -11 105 -3 41 -8 86 -10
100 -2 14 -6 52 -10 85 -3 33 -8 76 -10 95 -9 71 -21 172 -30 260 -3 30 -8 66
-10 80 -2 14 -9 70 -15 125 -6 55 -13 116 -15 135 -2 19 -7 60 -10 90 -4 30
-8 66 -10 80 -2 14 -7 52 -10 85 -3 33 -8 71 -10 85 -2 14 -7 54 -10 90 -4 36
-9 76 -10 90 -2 14 -6 52 -10 85 -3 33 -8 71 -10 85 -3 14 -7 50 -10 80 -3 30
-8 72 -10 93 -6 48 -12 98 -20 167 -3 30 -8 72 -11 93 -2 20 -6 54 -8 75 -3
20 -8 60 -11 88 l-6 50 -226 0 -225 1 7 -46z"/>
</g>
</svg>
